<svg width="107" height="106" viewBox="0 0 107 106" fill="none" xmlns="http://www.w3.org/2000/svg">
<g clip-path="url(#clip0_81_431)">
<path d="M39.7806 46.548H39.7747C39.7747 46.548 39.7865 46.5539 39.7923 46.548H39.7806ZM66.5164 42.6509V42.6626H66.5398C66.5398 42.6626 66.5222 42.6567 66.5164 42.6509ZM68.5725 54.3129L68.5842 54.3187C68.5784 54.3187 68.5725 54.3129 68.5725 54.3129Z" fill="#EBF9FF"/>
<path d="M39.7806 46.548H39.7747C39.7747 46.548 39.7865 46.5539 39.7923 46.548H39.7806ZM66.5164 42.6509V42.6626H66.5398C66.5398 42.6626 66.5222 42.6567 66.5164 42.6509ZM68.5725 54.3129L68.5842 54.3187C68.5784 54.3187 68.5725 54.3129 68.5725 54.3129Z" fill="#EBF9FF"/>
<path d="M68.5725 54.3129L68.5842 54.3187C68.5784 54.3187 68.5725 54.3129 68.5725 54.3129ZM66.5164 42.6509V42.6626H66.5398C66.5398 42.6626 66.5222 42.6567 66.5164 42.6509ZM39.7806 46.548H39.7747C39.7747 46.548 39.7865 46.5539 39.7923 46.548H39.7806Z" fill="#EBF9FF"/>
<path d="M68.5725 54.3129L68.5842 54.3187C68.5784 54.3187 68.5725 54.3129 68.5725 54.3129ZM66.5164 42.6509V42.6626H66.5398C66.5398 42.6626 66.5222 42.6567 66.5164 42.6509ZM39.7806 46.548H39.7747C39.7747 46.548 39.7865 46.5539 39.7923 46.548H39.7806Z" fill="#EBF9FF"/>
<path d="M39.7806 46.548H39.7747C39.7747 46.548 39.7865 46.5539 39.7923 46.548H39.7806ZM66.5164 42.6509V42.6626H66.5398C66.5398 42.6626 66.5222 42.6567 66.5164 42.6509ZM68.5725 54.3129L68.5842 54.3187C68.5784 54.3187 68.5725 54.3129 68.5725 54.3129Z" fill="#EBF9FF"/>
<path d="M39.7806 46.548H39.7747C39.7747 46.548 39.7865 46.5539 39.7923 46.548H39.7806ZM66.5164 42.6509V42.6626H66.5398C66.5398 42.6626 66.5222 42.6567 66.5164 42.6509ZM68.5725 54.3129L68.5842 54.3187C68.5784 54.3187 68.5725 54.3129 68.5725 54.3129Z" fill="#EBF9FF"/>
<path d="M39.7806 46.548H39.7747C39.7747 46.548 39.7865 46.5539 39.7923 46.548H39.7806ZM66.5164 42.6509V42.6626H66.5398C66.5398 42.6626 66.5222 42.6567 66.5164 42.6509ZM68.5725 54.3129L68.5842 54.3187C68.5784 54.3187 68.5725 54.3129 68.5725 54.3129Z" fill="#EBF9FF"/>
<path d="M68.5725 54.313L68.5842 54.3189C68.5784 54.3189 68.5725 54.313 68.5725 54.313Z" fill="#EBF9FF"/>
<path d="M37.0508 62.0957C37.0508 62.0957 37.045 62.0957 37.0391 62.1016L37.0508 62.0957Z" fill="#EBF9FF"/>
<path d="M68.5725 54.313L68.5842 54.3189C68.5784 54.3189 68.5725 54.313 68.5725 54.313Z" fill="#EBF9FF"/>
<path d="M74.6822 64.7722L74.3718 62.9762L73.8855 60.2412C73.0069 59.6836 72.0989 59.1613 71.1733 58.6742C71.0854 58.6272 70.9917 58.5861 70.9097 58.5392C65.6785 55.8687 59.7678 54.3721 53.4998 54.3721C47.2318 54.3721 41.3152 55.8804 36.0841 58.545C36.002 58.5861 35.9142 58.6272 35.8263 58.6742C34.8949 59.1613 33.9869 59.6778 33.1023 60.2412L32.6161 62.9762L32.2998 64.7781H74.6998C74.6998 64.7781 74.6881 64.7722 74.6881 64.7663L74.6822 64.7722Z" fill="#EBF9FF"/>
<path d="M68.7598 54.3777C64.1378 52.1415 58.9652 50.8973 53.4939 50.8973C48.0226 50.8973 42.8441 52.1533 38.2222 54.3777L39.6046 46.5248C39.6046 46.5248 39.6164 46.5248 39.6222 46.5189C43.881 44.6877 48.5673 43.6724 53.4939 43.6724C58.4205 43.6724 63.1068 44.6877 67.3656 46.5189H67.3773L68.7598 54.3777Z" fill="#EBF9FF"/>
<path d="M66.5162 41.6886C62.4977 40.0628 58.1042 39.1649 53.4998 39.1649C48.8954 39.1649 44.4844 40.0628 40.46 41.7003L41.6608 34.8921C42.6977 34.5165 43.758 34.1878 44.8359 33.912C47.6008 33.1959 50.5064 32.8203 53.4939 32.8203C56.4815 32.8203 59.3871 33.1959 62.152 33.912C63.2299 34.1878 64.2843 34.5165 65.3212 34.8921L66.5162 41.6886Z" fill="#EBF9FF"/>
<path d="M64.4664 30.0383H64.4547C61.0044 28.8821 57.3256 28.2659 53.4944 28.2659C49.6633 28.2659 45.9787 28.8821 42.5283 30.0325H42.5166L43.6296 23.6879C46.7578 22.7606 50.0675 22.2617 53.4944 22.2617C56.9214 22.2617 60.2252 22.7547 63.3475 23.6879L64.4664 30.0383Z" fill="#EBF9FF"/>
<path d="M66.6041 15.3891L66.1003 18.2532L65.8542 19.6442L65.6609 20.7417C61.8767 19.3155 57.7761 18.5349 53.4939 18.5349C49.2118 18.5349 45.1053 19.3155 41.3211 20.7476L41.1277 19.6442L40.8817 18.2532L40.624 16.8211L40.3721 15.3891C44.4141 13.7222 48.8486 12.8066 53.4939 12.8066C58.1393 12.8066 62.5621 13.7222 66.6041 15.3891Z" fill="#EBF9FF"/>
<path d="M53.6818 0C54.9589 0.0117383 56.1949 0.20542 57.3606 0.557569L57.6242 2.03659C60.231 2.96392 62.2169 5.22354 62.7148 8.05834H62.7031C59.8034 7.08406 56.7163 6.56758 53.4944 6.56758C50.2725 6.56758 47.1795 7.08993 44.2798 8.05247H44.2681C44.5785 6.27412 45.4807 4.71879 46.7577 3.58018C47.5134 2.90523 48.3979 2.377 49.3645 2.03072L49.6223 0.557569C50.788 0.211289 52.024 0.0117383 53.3011 0L53.6818 0Z" fill="#EBF9FF"/>
<path d="M17.4313 83.3806C17.2663 83.2151 16.96 82.9965 16.524 82.7188C16.0822 82.447 15.552 82.1633 14.9216 81.8797C14.2913 81.5961 13.6079 81.3538 12.8715 81.1647C12.1351 80.9756 11.3869 80.8811 10.6269 80.8811C9.29553 80.8811 8.29403 81.1233 7.61655 81.6079C6.93906 82.0924 6.60326 82.7956 6.60326 83.7233C6.60326 84.4088 6.81535 84.9583 7.2454 85.3601C7.67546 85.7619 8.31171 86.1047 9.16593 86.3883C10.0201 86.6719 11.0865 86.9792 12.3707 87.3101C14.032 87.7119 15.4754 88.2024 16.6949 88.7874C17.9202 89.3664 18.8569 90.1287 19.5108 91.0623C20.1648 91.996 20.4888 93.2487 20.4888 94.8146C20.4888 96.1441 20.2413 97.2786 19.7406 98.23C19.2398 99.1754 18.5565 99.9554 17.6905 100.558C16.8245 101.161 15.8289 101.598 14.6977 101.876C13.5725 102.148 12.3766 102.284 11.1159 102.284C9.8552 102.284 8.60037 102.154 7.33966 101.888C6.07895 101.628 4.87715 101.25 3.72248 100.765C2.5678 100.275 1.49561 99.6895 0.5 98.9982L2.67385 94.7496C2.88593 94.9623 3.26886 95.2459 3.81084 95.5887C4.35872 95.9314 5.02443 96.28 5.80795 96.6227C6.59148 96.9655 7.4457 97.2609 8.37062 97.4973C9.29553 97.7336 10.2322 97.8518 11.1866 97.8518C12.5416 97.8518 13.549 97.6332 14.2147 97.1959C14.8804 96.7586 15.2103 96.1205 15.2103 95.2696C15.2103 94.5132 14.9452 93.9105 14.4091 93.4732C13.873 93.036 13.1189 92.6578 12.1469 92.3328C11.1748 92.0137 10.0201 91.6769 8.69463 91.3164C7.08045 90.8673 5.74315 90.3592 4.68863 89.786C3.63411 89.2187 2.8388 88.5096 2.3027 87.6706C1.7666 86.8315 1.5015 85.7678 1.5015 84.4856C1.5015 82.7542 1.91388 81.3006 2.75043 80.1306C3.58109 78.9547 4.69452 78.0684 6.09662 77.4657C7.49872 76.8629 9.05399 76.5557 10.7624 76.5557C11.9466 76.5557 13.0718 76.6857 14.1263 76.9457C15.1808 77.2057 16.1764 77.5543 17.1013 77.9797C18.0263 78.4111 18.8569 78.872 19.5933 79.3743L17.4195 83.3747L17.4313 83.3806Z" fill="#EBF9FF"/>
<path d="M31.4996 102.455C30.0033 102.455 28.6483 102.201 27.4406 101.698C26.227 101.19 25.1961 100.499 24.3419 99.6124C23.4876 98.732 22.8337 97.7215 22.386 96.5929C21.9324 95.4643 21.7085 94.247 21.7085 92.9529C21.7085 91.2098 22.1032 89.6025 22.8985 88.1312C23.6938 86.6598 24.819 85.4839 26.2801 84.5976C27.7411 83.7171 29.4907 83.2739 31.535 83.2739C33.5792 83.2739 35.2877 83.7171 36.7369 84.6035C38.1861 85.4898 39.2996 86.648 40.0831 88.0898C40.8666 89.5257 41.2554 91.0975 41.2554 92.7934C41.2554 93.1007 41.2436 93.3902 41.2201 93.662C41.1965 93.9338 41.173 94.1643 41.1494 94.3534H26.7631C26.8338 95.3284 27.0989 96.1615 27.5643 96.8529C28.0297 97.5383 28.6188 98.0701 29.3435 98.4424C30.0681 98.8147 30.8339 99.0038 31.641 99.0038C32.6131 99.0038 33.5203 98.7733 34.3628 98.3065C35.2052 97.8397 35.7825 97.2193 36.0889 96.4333L40.1479 97.5738C39.7178 98.5251 39.0934 99.3701 38.2627 100.109C37.4321 100.847 36.4482 101.426 35.3053 101.84C34.1683 102.254 32.8958 102.466 31.4937 102.466L31.4996 102.455ZM26.6217 91.3457H36.3775C36.2833 90.412 36.0182 89.6084 35.5763 88.9171C35.1345 88.2316 34.5631 87.6939 33.8502 87.3098C33.1374 86.9257 32.3421 86.7366 31.4643 86.7366C30.5865 86.7366 29.8324 86.9257 29.1314 87.3098C28.4303 87.6939 27.8589 88.2316 27.4229 88.9171C26.9811 89.6025 26.716 90.412 26.6217 91.3457Z" fill="#EBF9FF"/>
<path d="M60.6312 102.094H55.8594V91.7416C55.8594 90.2644 55.6061 89.183 55.0935 88.5035C54.581 87.8239 53.8505 87.4812 52.902 87.4812C52.2599 87.4812 51.6118 87.6467 50.9638 87.9717C50.3099 88.2966 49.7267 88.7457 49.22 89.313C48.7075 89.8803 48.3128 90.5421 48.0241 91.2866V102.094H43.2876V83.5576H47.5941V87.0144C48.0712 86.2167 48.6721 85.543 49.4085 84.9994C50.1449 84.4558 50.9874 84.0362 51.9359 83.729C52.8843 83.4217 53.9035 83.2681 54.9993 83.2681C56.1598 83.2681 57.1201 83.4749 57.8683 83.8885C58.6164 84.3021 59.1879 84.8576 59.5767 85.5667C59.9655 86.2758 60.2424 87.0558 60.3956 87.9126C60.5488 88.7694 60.6253 89.638 60.6253 90.5066V102.094H60.6312Z" fill="#EBF9FF"/>
<path d="M74.458 101.167C74.0279 101.356 73.539 101.557 72.9793 101.758C72.4196 101.959 71.8128 102.124 71.1648 102.26C70.5109 102.39 69.8511 102.455 69.1913 102.455C68.2899 102.455 67.471 102.301 66.7346 101.994C65.9982 101.687 65.4091 101.196 64.9732 100.523C64.5313 99.8491 64.3134 98.9746 64.3134 97.8873V87.1979H61.8921V83.552H64.3134V77.4775H69.1206V83.552H73.0382V87.1979H69.1206V96.2624C69.1441 96.9005 69.3209 97.3614 69.6567 97.6569C69.9866 97.9523 70.4166 98.1001 70.9409 98.1001C71.4181 98.1001 71.8894 98.0114 72.3666 97.8342C72.8438 97.6569 73.2326 97.4974 73.539 97.3496L74.4639 101.173L74.458 101.167Z" fill="#EBF9FF"/>
<path d="M87.7369 87.5228C86.2641 87.5464 84.9622 87.8241 83.8193 88.3619C82.6823 88.8996 81.8457 89.6914 81.3273 90.7373V102.094H76.5908V83.5578H80.9739V87.381C81.6396 86.0928 82.4879 85.0824 83.5188 84.3437C84.5498 83.6051 85.6397 83.2033 86.7767 83.1265C87.0123 83.1501 87.2067 83.156 87.3481 83.1442C87.4895 83.1324 87.6191 83.1501 87.7369 83.1974V87.5169V87.5228Z" fill="#EBF9FF"/>
<path d="M88.0898 96.6288C88.0898 95.4293 88.4256 94.3834 89.1031 93.4852C89.7806 92.5929 90.7173 91.8897 91.9191 91.3875C93.115 90.8793 94.5112 90.6311 96.1019 90.6311C96.8854 90.6311 97.6807 90.6902 98.4878 90.8084C99.2949 90.9266 99.9959 91.1157 100.591 91.3816V90.3534C100.591 89.207 100.249 88.3207 99.56 87.6884C98.8707 87.0562 97.8398 86.743 96.4612 86.743C95.4185 86.743 94.4288 86.9202 93.5038 87.2807C92.5789 87.6411 91.601 88.1493 90.5818 88.817L89.0855 85.7089C90.299 84.8757 91.548 84.2612 92.844 83.8712C94.1401 83.4753 95.4951 83.2803 96.9207 83.2803C99.5776 83.2803 101.651 83.9303 103.136 85.2362C104.621 86.5362 105.363 88.4211 105.363 90.8852V96.7647C105.363 97.2611 105.451 97.6097 105.628 97.8224C105.805 98.0351 106.099 98.1651 106.5 98.2124V102.106C106.076 102.177 105.687 102.236 105.345 102.284C105.003 102.331 104.709 102.343 104.473 102.319C103.525 102.319 102.806 102.112 102.317 101.693C101.828 101.279 101.539 100.759 101.445 100.139L101.339 99.1756C100.508 100.221 99.4893 101.031 98.2757 101.604C97.0621 102.177 95.8309 102.461 94.5701 102.461C93.3094 102.461 92.2255 102.201 91.2416 101.687C90.2578 101.173 89.4861 100.47 88.9264 99.5892C88.3667 98.7088 88.0898 97.722 88.0898 96.6406V96.6288ZM99.7014 97.527C99.9606 97.2965 100.179 97.0306 100.344 96.7292C100.508 96.4279 100.591 96.1738 100.591 95.9611V94.1174C100.019 93.887 99.4009 93.7038 98.7411 93.5797C98.0754 93.4497 97.445 93.3906 96.8559 93.3906C95.6188 93.3906 94.6055 93.6506 93.8102 94.1765C93.0149 94.6965 92.6143 95.3879 92.6143 96.2506C92.6143 96.7174 92.7439 97.1606 93.0031 97.592C93.2623 98.0233 93.6393 98.366 94.1283 98.6201C94.6114 98.8742 95.2123 99.0042 95.9251 99.0042C96.6379 99.0042 97.339 98.8624 98.0283 98.5847C98.7175 98.307 99.2772 97.9583 99.7014 97.5388V97.527Z" fill="#EBF9FF"/>
</g>
<defs>
<clipPath id="clip0_81_431">
<rect width="106" height="102.467" fill="white" transform="translate(0.5)"/>
</clipPath>
</defs>
</svg>
