<svg width="16.470588235294116" height="16" viewBox="0 0 70 68" fill="none" xmlns="http://www.w3.org/2000/svg">
<g clip-path="url(#clip0_75_352)">
<path d="M25.8401 30.6208H25.8362C25.8362 30.6208 25.8439 30.6246 25.8478 30.6208H25.8401ZM43.4278 28.0571V28.0649H43.4432C43.4432 28.0649 43.4317 28.061 43.4278 28.0571ZM44.7804 35.7288L44.7881 35.7327C44.7843 35.7327 44.7804 35.7288 44.7804 35.7288Z" fill="#292929"></path>
<path d="M25.8401 30.6208H25.8362C25.8362 30.6208 25.8439 30.6246 25.8478 30.6208H25.8401ZM43.4278 28.0571V28.0649H43.4432C43.4432 28.0649 43.4317 28.061 43.4278 28.0571ZM44.7804 35.7288L44.7881 35.7327C44.7843 35.7327 44.7804 35.7288 44.7804 35.7288Z" fill="#292929"></path>
<path d="M44.7804 35.7288L44.7881 35.7327C44.7843 35.7327 44.7804 35.7288 44.7804 35.7288ZM43.4278 28.0571V28.0649H43.4432C43.4432 28.0649 43.4317 28.061 43.4278 28.0571ZM25.8401 30.6208H25.8362C25.8362 30.6208 25.8439 30.6246 25.8478 30.6208H25.8401Z" fill="#292929"></path>
<path d="M44.7804 35.7288L44.7881 35.7327C44.7843 35.7327 44.7804 35.7288 44.7804 35.7288ZM43.4278 28.0571V28.0649H43.4432C43.4432 28.0649 43.4317 28.061 43.4278 28.0571ZM25.8401 30.6208H25.8362C25.8362 30.6208 25.8439 30.6246 25.8478 30.6208H25.8401Z" fill="#292929"></path>
<path d="M25.8401 30.6208H25.8362C25.8362 30.6208 25.8439 30.6246 25.8478 30.6208H25.8401ZM43.4278 28.0571V28.0649H43.4432C43.4432 28.0649 43.4317 28.061 43.4278 28.0571ZM44.7804 35.7288L44.7881 35.7327C44.7843 35.7327 44.7804 35.7288 44.7804 35.7288Z" fill="#292929"></path>
<path d="M25.8401 30.6208H25.8362C25.8362 30.6208 25.8439 30.6246 25.8478 30.6208H25.8401ZM43.4278 28.0571V28.0649H43.4432C43.4432 28.0649 43.4317 28.061 43.4278 28.0571ZM44.7804 35.7288L44.7881 35.7327C44.7843 35.7327 44.7804 35.7288 44.7804 35.7288Z" fill="#292929"></path>
<path d="M25.8401 30.6208H25.8362C25.8362 30.6208 25.8439 30.6246 25.8478 30.6208H25.8401ZM43.4278 28.0571V28.0649H43.4432C43.4432 28.0649 43.4317 28.061 43.4278 28.0571ZM44.7804 35.7288L44.7881 35.7327C44.7843 35.7327 44.7804 35.7288 44.7804 35.7288Z" fill="#292929"></path>
<path d="M44.7804 35.729L44.7881 35.7329C44.7843 35.7329 44.7804 35.729 44.7804 35.729Z" fill="#292929"></path>
<path d="M24.0444 40.8486C24.0444 40.8486 24.0405 40.8486 24.0366 40.8525L24.0444 40.8486Z" fill="#292929"></path>
<path d="M44.7804 35.729L44.7881 35.7329C44.7843 35.7329 44.7804 35.729 44.7804 35.729Z" fill="#292929"></path>
<path d="M48.7998 42.6091L48.5956 41.4277L48.2757 39.6285C47.6977 39.2617 47.1004 38.9181 46.4915 38.5976C46.4337 38.5668 46.3721 38.5397 46.3181 38.5088C42.8769 36.7521 38.9886 35.7676 34.8653 35.7676C30.742 35.7676 26.8498 36.7598 23.4086 38.5127C23.3547 38.5397 23.2968 38.5668 23.239 38.5976C22.6263 38.9181 22.029 39.2579 21.4471 39.6285L21.1273 41.4277L20.9192 42.613H48.8114C48.8114 42.613 48.8037 42.6091 48.8037 42.6053L48.7998 42.6091Z" fill="#292929"></path>
<path d="M44.9039 35.7713C41.8634 34.3003 38.4607 33.4818 34.8615 33.4818C31.2622 33.4818 27.8557 34.308 24.8152 35.7713L25.7246 30.6054C25.7246 30.6054 25.7323 30.6054 25.7362 30.6016C28.5377 29.3969 31.6206 28.729 34.8615 28.729C38.1023 28.729 41.1852 29.3969 43.9867 30.6016H43.9944L44.9039 35.7713Z" fill="#292929"></path>
<path d="M43.4278 27.4242C40.7843 26.3547 37.8941 25.764 34.8652 25.764C31.8363 25.764 28.9345 26.3547 26.2871 27.4319L27.0771 22.9532C27.7592 22.7061 28.4567 22.4899 29.1657 22.3085C30.9846 21.8374 32.896 21.5903 34.8613 21.5903C36.8266 21.5903 38.738 21.8374 40.5569 22.3085C41.266 22.4899 41.9596 22.7061 42.6417 22.9532L43.4278 27.4242Z" fill="#292929"></path>
<path d="M42.079 19.7603H42.0713C39.8015 18.9997 37.3815 18.5943 34.8613 18.5943C32.341 18.5943 29.9171 18.9997 27.6474 19.7564H27.6396L28.3718 15.5827C30.4296 14.9727 32.6069 14.6445 34.8613 14.6445C37.1156 14.6445 39.289 14.9688 41.343 15.5827L42.079 19.7603Z" fill="#292929"></path>
<path d="M43.4858 10.1236L43.1544 12.0077L42.9926 12.9228L42.8654 13.6448C40.376 12.7066 37.6785 12.1931 34.8615 12.1931C32.0445 12.1931 29.3432 12.7066 26.8538 13.6486L26.7266 12.9228L26.5648 12.0077L26.3952 11.0657L26.2295 10.1236C28.8885 9.02711 31.8056 8.4248 34.8615 8.4248C37.9174 8.4248 40.8268 9.02711 43.4858 10.1236Z" fill="#292929"></path>
<path d="M34.9847 0C35.8248 0.00772186 36.6379 0.135132 37.4047 0.366788L37.5781 1.33974C39.293 1.94977 40.5994 3.43623 40.9269 5.30105H40.9192C39.0117 4.66014 36.9808 4.32038 34.8614 4.32038C32.7419 4.32038 30.7072 4.664 28.7997 5.29719H28.792C28.9962 4.12733 29.5897 3.10419 30.4298 2.35517C30.9269 1.91116 31.5088 1.56368 32.1446 1.33588L32.3142 0.366788C33.081 0.138993 33.8941 0.00772186 34.7342 0L34.9847 0Z" fill="#292929"></path>
<path d="M11.138 54.8505C11.0295 54.7417 10.8279 54.5979 10.5412 54.4152C10.2505 54.2363 9.90171 54.0498 9.48704 53.8632C9.07237 53.6766 8.62282 53.5172 8.13839 53.3928C7.65396 53.2684 7.16178 53.2062 6.66185 53.2062C5.78601 53.2062 5.12718 53.3656 4.68151 53.6844C4.23584 54.0031 4.01494 54.4657 4.01494 55.076C4.01494 55.5269 4.15445 55.8884 4.43736 56.1527C4.72027 56.417 5.13881 56.6425 5.70075 56.8291C6.26268 57.0157 6.96414 57.2178 7.80898 57.4355C8.90185 57.6998 9.85133 58.0224 10.6535 58.4073C11.4596 58.7882 12.0758 59.2897 12.506 59.9038C12.9362 60.518 13.1493 61.3421 13.1493 62.3722C13.1493 63.2468 12.9865 63.9931 12.6571 64.619C12.3277 65.2409 11.8782 65.754 11.3085 66.1505C10.7388 66.547 10.0839 66.8347 9.33977 67.0174C8.59956 67.1962 7.81285 67.2856 6.98351 67.2856C6.15417 67.2856 5.32871 67.2001 4.49937 67.0251C3.67003 66.8541 2.87944 66.6053 2.11986 66.2866C1.36027 65.9639 0.654947 65.5791 0 65.1243L1.43003 62.3294C1.56955 62.4694 1.82145 62.656 2.17799 62.8814C2.5384 63.1069 2.97632 63.3362 3.49176 63.5617C4.00719 63.7871 4.56912 63.9815 5.17757 64.137C5.78601 64.2925 6.4022 64.3702 7.03002 64.3702C7.92137 64.3702 8.58406 64.2264 9.02199 63.9387C9.45991 63.6511 9.67693 63.2313 9.67693 62.6715C9.67693 62.1739 9.50254 61.7774 9.14987 61.4898C8.79721 61.2021 8.30116 60.9534 7.66171 60.7396C7.02227 60.5297 6.26268 60.3081 5.39071 60.071C4.32885 59.7756 3.44913 59.4413 2.75543 59.0642C2.06173 58.691 1.53854 58.2246 1.18588 57.6726C0.833216 57.1206 0.658822 56.4209 0.658822 55.5774C0.658822 54.4385 0.930102 53.4822 1.48041 52.7126C2.02685 51.939 2.7593 51.356 3.68165 50.9595C4.604 50.563 5.62711 50.3608 6.75099 50.3608C7.52995 50.3608 8.27015 50.4464 8.96385 50.6174C9.65755 50.7884 10.3125 51.0178 10.9209 51.2976C11.5294 51.5814 12.0758 51.8846 12.5602 52.215L11.1302 54.8466L11.138 54.8505Z" fill="#292929"></path>
<path d="M20.3926 67.3985C19.4083 67.3985 18.5169 67.2314 17.7224 66.901C16.9241 66.5667 16.2459 66.1119 15.684 65.5288C15.122 64.9496 14.6919 64.2849 14.3973 63.5424C14.0989 62.8 13.9517 61.9992 13.9517 61.1479C13.9517 60.0012 14.2113 58.9439 14.7345 57.976C15.2577 57.0081 15.9979 56.2346 16.959 55.6515C17.9201 55.0723 19.0711 54.7808 20.4159 54.7808C21.7606 54.7808 22.8845 55.0723 23.8379 55.6554C24.7912 56.2384 25.5237 57.0003 26.0391 57.9488C26.5545 58.8934 26.8103 59.9274 26.8103 61.043C26.8103 61.2451 26.8026 61.4356 26.7871 61.6144C26.7716 61.7932 26.7561 61.9448 26.7406 62.0692H17.2768C17.3233 62.7106 17.4977 63.2587 17.8038 63.7135C18.11 64.1644 18.4975 64.5142 18.9742 64.7591C19.4509 65.004 19.9547 65.1284 20.4856 65.1284C21.1251 65.1284 21.7219 64.9768 22.2761 64.6697C22.8303 64.3626 23.21 63.9545 23.4116 63.4375L26.0817 64.1877C25.7988 64.8135 25.388 65.3694 24.8416 65.8553C24.2952 66.3412 23.648 66.7221 22.8961 66.9942C22.1482 67.2663 21.3111 67.4063 20.3887 67.4063L20.3926 67.3985ZM17.1838 60.0906H23.6015C23.5395 59.4765 23.3651 58.9478 23.0744 58.493C22.7837 58.0421 22.4078 57.6884 21.9389 57.4357C21.47 57.183 20.9468 57.0586 20.3694 57.0586C19.7919 57.0586 19.2959 57.183 18.8347 57.4357C18.3735 57.6884 17.9976 58.0421 17.7108 58.493C17.4202 58.9439 17.2458 59.4765 17.1838 60.0906Z" fill="#292929"></path>
<path d="M39.5565 67.1614H36.4174V60.3511C36.4174 59.3793 36.2507 58.6679 35.9136 58.2209C35.5764 57.7739 35.0958 57.5484 34.4719 57.5484C34.0495 57.5484 33.6232 57.6572 33.1969 57.871C32.7667 58.0848 32.3831 58.3803 32.0498 58.7534C31.7126 59.1266 31.453 59.562 31.2631 60.0517V67.1614H28.1472V54.9673H30.9802V57.2413C31.2941 56.7166 31.6894 56.2734 32.1738 55.9158C32.6582 55.5582 33.2124 55.2822 33.8363 55.0801C34.4603 54.8779 35.1307 54.7769 35.8516 54.7769C36.615 54.7769 37.2467 54.9129 37.7389 55.185C38.2311 55.4571 38.607 55.8225 38.8628 56.289C39.1185 56.7554 39.3007 57.2685 39.4014 57.8322C39.5022 58.3958 39.5526 58.9672 39.5526 59.5386V67.1614H39.5565Z" fill="#292929"></path>
<path d="M48.652 66.5509C48.3691 66.6753 48.0475 66.8075 47.6793 66.9397C47.3111 67.0718 46.912 67.1807 46.4857 67.2701C46.0555 67.3556 45.6214 67.3983 45.1874 67.3983C44.5945 67.3983 44.0558 67.2973 43.5713 67.0951C43.0869 66.893 42.6994 66.5704 42.4126 66.1272C42.1219 65.6841 41.9785 65.1088 41.9785 64.3936V57.3617H40.3857V54.9633H41.9785V50.9673H45.1409V54.9633H47.718V57.3617H45.1409V63.3246C45.1564 63.7444 45.2727 64.0476 45.4935 64.242C45.7106 64.4363 45.9935 64.5335 46.3384 64.5335C46.6523 64.5335 46.9623 64.4752 47.2762 64.3586C47.5902 64.242 47.8459 64.137 48.0475 64.0398L48.6559 66.5548L48.652 66.5509Z" fill="#292929"></path>
<path d="M57.3872 57.5756C56.4184 57.5912 55.5619 57.7739 54.8101 58.1276C54.0621 58.4814 53.5118 59.0022 53.1708 59.6903V67.1614H50.0549V54.9674H52.9382V57.4824C53.3762 56.635 53.9342 55.9702 54.6124 55.4843C55.2906 54.9985 56.0076 54.7341 56.7555 54.6836C56.9106 54.6991 57.0384 54.703 57.1315 54.6953C57.2245 54.6875 57.3097 54.6991 57.3872 54.7302V57.5718V57.5756Z" fill="#292929"></path>
<path d="M57.6199 63.5658C57.6199 62.7767 57.8408 62.0887 58.2864 61.4978C58.7321 60.9108 59.3483 60.4483 60.1389 60.1179C60.9256 59.7836 61.8441 59.6203 62.8905 59.6203C63.4059 59.6203 63.9291 59.6592 64.46 59.7369C64.9909 59.8147 65.4521 59.9391 65.8435 60.114V59.4376C65.8435 58.6835 65.6187 58.1004 65.1653 57.6845C64.7119 57.2686 64.0337 57.0625 63.1269 57.0625C62.4409 57.0625 61.7898 57.1792 61.1814 57.4163C60.5729 57.6534 59.9296 57.9877 59.2592 58.4269L58.2748 56.3823C59.0732 55.8342 59.8947 55.4299 60.7473 55.1734C61.5999 54.9129 62.4913 54.7847 63.4291 54.7847C65.177 54.7847 66.5411 55.2123 67.5177 56.0713C68.4943 56.9265 68.9826 58.1665 68.9826 59.7875V63.6552C68.9826 63.9817 69.0407 64.2111 69.157 64.351C69.2733 64.4909 69.467 64.5764 69.7306 64.6075V67.1692C69.4515 67.2158 69.1958 67.2547 68.971 67.2858C68.7462 67.3169 68.5524 67.3247 68.3974 67.3091C67.7735 67.3091 67.3007 67.1731 66.979 66.8971C66.6574 66.625 66.4675 66.2829 66.4055 65.8748L66.3357 65.2412C65.7893 65.9292 65.1188 66.4617 64.3205 66.8388C63.5221 67.2158 62.7122 67.4024 61.8828 67.4024C61.0535 67.4024 60.3404 67.2314 59.6932 66.8932C59.046 66.555 58.5384 66.0924 58.1702 65.5133C57.802 64.9341 57.6199 64.2849 57.6199 63.5736V63.5658ZM65.2583 64.1566C65.4289 64.005 65.5722 63.8301 65.6808 63.6319C65.7893 63.4336 65.8435 63.2665 65.8435 63.1265V61.9137C65.4676 61.7621 65.0607 61.6416 64.6266 61.56C64.1887 61.4745 63.774 61.4356 63.3865 61.4356C62.5727 61.4356 61.9061 61.6066 61.3829 61.9526C60.8597 62.2947 60.5962 62.7495 60.5962 63.317C60.5962 63.6241 60.6815 63.9156 60.852 64.1994C61.0225 64.4832 61.2705 64.7086 61.5922 64.8758C61.91 65.0429 62.3053 65.1284 62.7742 65.1284C63.2431 65.1284 63.7043 65.0351 64.1577 64.8524C64.6111 64.6697 64.9793 64.4404 65.2583 64.1644V64.1566Z" fill="#292929"></path>
</g>
<defs>
<clipPath id="clip0_75_352">
<rect width="69.7305" height="67.4061" fill="white"></rect>
</clipPath>
</defs>
</svg>